<svg width="16" height="16" viewBox="0 0 16 16" fill="none" xmlns="http://www.w3.org/2000/svg"><g clip-path="url(#clip0_8_97)"><path fill-rule="evenodd" clip-rule="evenodd" d="M0 0C3.21969.00920984 4.96662.572867 8 2 11.0334.572867 12.7803.00920984 16 0V14C12.7672 14.0329 11.0221 14.6115 8 16c-3.02211-1.3885-4.76722-1.9671-8-2V0zM13.0073 6.92088 13.0213 6.95821C13.2244 7.48973 13.2493 8.07288 13.0921 8.61976c-.1571.54688-.4878 1.02786-.9421 1.37043L12.144 9.99485 9.97862 11.6155 8.91195 12.4215l-.648.49C8.18792 12.9689 8.09523 13 7.99995 13 7.90466 13 7.81198 12.9689 7.73595 12.9115l-.648-.49L6.02128 11.6155l-2.15-1.6113L3.85928 9.99485 3.85394 9.99085C3.39957 9.64816 3.06893 9.16703 2.91188 8.62001 2.75484 8.07299 2.77989 7.48974 2.98328 6.95821L2.99794 6.92154l1.41267-3.6873C4.43922 3.16185 4.49012 3.10044 4.55594 3.05891 4.6051 3.02761 4.66088 3.00823 4.71885 3.00231S4.83537 3.0041 4.88983 3.02483C4.94429 3.04555 4.99316 3.07871 5.03253 3.12167 5.07191 3.16462 5.1007 3.21618 5.11661 3.27224L6.07061 6.19288H9.93395L10.888 3.27224C10.9037 3.2161 10.9325 3.16444 10.9718 3.1214 11.0112 3.07836 11.0601 3.04514 11.1146 3.02441 11.1691 3.00367 11.2277 2.99598 11.2857 3.00198 11.3437 3.00797 11.3995 3.02746 11.4486 3.05891 11.5144 3.10044 11.5653 3.16185 11.594 3.23424l1.4133 3.68664z" fill="#fc6d26"/></g><defs><clipPath id="clip0_8_97"><rect width="16" height="16" fill="#fff"/></clipPath></defs></svg>